<svg width="46" height="36" viewBox="0 0 46 36" fill="none" xmlns="http://www.w3.org/2000/svg">
<path d="M20.6938 35.2L17.7125 32.75C13.0625 28.9167 9.03125 25.2583 5.61875 21.775C2.20625 18.2917 0.5 14.65 0.5 10.85C0.5 7.85 1.63438 5.34167 3.90313 3.325C6.17188 1.30834 8.975 0.300003 12.3125 0.300003C14.225 0.300003 16.1187 0.708336 17.9937 1.525C19.8687 2.34167 21.5375 3.68334 23 5.55C24.65 3.68334 26.3562 2.34167 28.1187 1.525C29.8812 0.708336 31.7375 0.300003 33.6875 0.300003C37.025 0.300003 39.8281 1.30834 42.0969 3.325C44.3656 5.34167 45.5 7.85 45.5 10.85C45.5 14.65 43.7938 18.2917 40.3813 21.775C36.9688 25.2583 32.9375 28.9167 28.2875 32.75L25.3062 35.2C24.6687 35.7333 23.9 36 23 36C22.1 36 21.3313 35.7333 20.6938 35.2ZM21.5375 8.85C20.525 7.21667 19.1938 5.88334 17.5437 4.85C15.8937 3.81667 14.15 3.3 12.3125 3.3C9.8375 3.3 7.8125 4.00834 6.2375 5.425C4.6625 6.84167 3.875 8.65 3.875 10.85C3.875 12.7833 4.60625 14.8083 6.06875 16.925C7.53125 19.0417 9.275 21.1 11.3 23.1C13.325 25.1 15.425 26.9583 17.6 28.675C19.775 30.3917 21.575 31.8333 23 33C24.425 31.8667 26.225 30.4333 28.4 28.7C30.575 26.9667 32.675 25.0917 34.7 23.075C36.725 21.0583 38.4688 18.9917 39.9312 16.875C41.3937 14.7583 42.125 12.75 42.125 10.85C42.125 8.65 41.3281 6.84167 39.7344 5.425C38.1406 4.00834 36.125 3.3 33.6875 3.3C31.8125 3.3 30.0594 3.80834 28.4281 4.825C26.7969 5.84167 25.4375 7.18334 24.35 8.85C24.1625 9.11667 23.9562 9.30834 23.7312 9.425C23.5063 9.54167 23.2438 9.6 22.9438 9.6C22.6438 9.6 22.3719 9.54167 22.1281 9.425C21.8844 9.30834 21.6875 9.11667 21.5375 8.85Z" fill="#DBB014"/>
</svg>
