<svg width="134" height="31" viewBox="0 0 134 31" fill="none" xmlns="http://www.w3.org/2000/svg">
<path d="M19.0625 12.1094V21.125C18.7083 21.5521 18.1615 22.0156 17.4219 22.5156C16.6823 23.0052 15.7292 23.4271 14.5625 23.7812C13.3958 24.1354 11.9844 24.3125 10.3281 24.3125C8.85938 24.3125 7.52083 24.0729 6.3125 23.5938C5.10417 23.1042 4.0625 22.3906 3.1875 21.4531C2.32292 20.5156 1.65625 19.3698 1.1875 18.0156C0.71875 16.651 0.484375 15.0938 0.484375 13.3438V11.9219C0.484375 10.1719 0.708333 8.61458 1.15625 7.25C1.61458 5.88542 2.26562 4.73438 3.10938 3.79688C3.95312 2.85938 4.95833 2.14583 6.125 1.65625C7.29167 1.16667 8.58854 0.921875 10.0156 0.921875C11.9948 0.921875 13.6198 1.24479 14.8906 1.89062C16.1615 2.52604 17.1302 3.41146 17.7969 4.54688C18.474 5.67188 18.8906 6.96354 19.0469 8.42188H14.5C14.3854 7.65104 14.1667 6.97917 13.8438 6.40625C13.5208 5.83333 13.0573 5.38542 12.4531 5.0625C11.8594 4.73958 11.0885 4.57812 10.1406 4.57812C9.35938 4.57812 8.66146 4.73958 8.04688 5.0625C7.44271 5.375 6.93229 5.83854 6.51562 6.45312C6.09896 7.06771 5.78125 7.82812 5.5625 8.73438C5.34375 9.64062 5.23438 10.6927 5.23438 11.8906V13.3438C5.23438 14.5312 5.34896 15.5833 5.57812 16.5C5.80729 17.4062 6.14583 18.1719 6.59375 18.7969C7.05208 19.4115 7.61458 19.875 8.28125 20.1875C8.94792 20.5 9.72396 20.6562 10.6094 20.6562C11.349 20.6562 11.9635 20.5938 12.4531 20.4688C12.9531 20.3438 13.3542 20.1927 13.6562 20.0156C13.9688 19.8281 14.2083 19.651 14.375 19.4844V15.4531H10.0938V12.1094H19.0625ZM27.5781 22.0938L32.0625 7.09375H36.8906L30.0938 26.5469C29.9479 26.974 29.75 27.4323 29.5 27.9219C29.2604 28.4115 28.9323 28.875 28.5156 29.3125C28.1094 29.7604 27.5938 30.125 26.9688 30.4062C26.3542 30.6875 25.599 30.8281 24.7031 30.8281C24.276 30.8281 23.9271 30.8021 23.6562 30.75C23.3854 30.6979 23.0625 30.625 22.6875 30.5312V27.2344C22.8021 27.2344 22.9219 27.2344 23.0469 27.2344C23.1719 27.2448 23.2917 27.25 23.4062 27.25C24 27.25 24.4844 27.1823 24.8594 27.0469C25.2344 26.9115 25.5365 26.7031 25.7656 26.4219C25.9948 26.151 26.1771 25.7969 26.3125 25.3594L27.5781 22.0938ZM25.7031 7.09375L29.375 19.3438L30.0156 24.1094L26.9531 24.4375L20.875 7.09375H25.7031ZM43.1875 10.5938V24H38.6719V7.09375H42.9062L43.1875 10.5938ZM42.5625 14.9531H41.3125C41.3125 13.776 41.4531 12.6927 41.7344 11.7031C42.026 10.7031 42.4479 9.83854 43 9.10938C43.5625 8.36979 44.2552 7.79688 45.0781 7.39062C45.901 6.98438 46.8542 6.78125 47.9375 6.78125C48.6875 6.78125 49.375 6.89583 50 7.125C50.625 7.34375 51.1615 7.69271 51.6094 8.17188C52.0677 8.64062 52.4219 9.25521 52.6719 10.0156C52.9219 10.7656 53.0469 11.6667 53.0469 12.7188V24H48.5469V13.2188C48.5469 12.4479 48.4427 11.8542 48.2344 11.4375C48.026 11.0208 47.7292 10.7292 47.3438 10.5625C46.9688 10.3958 46.5156 10.3125 45.9844 10.3125C45.401 10.3125 44.8906 10.4323 44.4531 10.6719C44.026 10.9115 43.6719 11.2448 43.3906 11.6719C43.1094 12.0885 42.901 12.5781 42.7656 13.1406C42.6302 13.7031 42.5625 14.3073 42.5625 14.9531ZM52.625 14.4375L51.0156 14.6406C51.0156 13.5365 51.151 12.5104 51.4219 11.5625C51.7031 10.6146 52.1146 9.78125 52.6562 9.0625C53.2083 8.34375 53.8906 7.78646 54.7031 7.39062C55.5156 6.98438 56.4531 6.78125 57.5156 6.78125C58.3281 6.78125 59.0677 6.90104 59.7344 7.14062C60.401 7.36979 60.9688 7.73958 61.4375 8.25C61.9167 8.75 62.2812 9.40625 62.5312 10.2188C62.7917 11.0312 62.9219 12.026 62.9219 13.2031V24H58.4062V13.2031C58.4062 12.4219 58.3021 11.8281 58.0938 11.4219C57.8958 11.0052 57.6042 10.7188 57.2188 10.5625C56.8438 10.3958 56.3958 10.3125 55.875 10.3125C55.3333 10.3125 54.8594 10.4219 54.4531 10.6406C54.0469 10.849 53.7083 11.1406 53.4375 11.5156C53.1667 11.8906 52.9635 12.3281 52.8281 12.8281C52.6927 13.3177 52.625 13.8542 52.625 14.4375Z" fill="white"/>
<path d="M71.375 1.25V24H66.6875V1.25H71.375ZM85 1.25L75.9844 12.4844L70.7812 18.0781L69.9375 13.6406L73.4531 8.82812L79.25 1.25H85ZM79.6719 24L72.9688 13.4844L76.4375 10.5781L85.2188 24H79.6719ZM96.2812 5.14062L90.0938 24H85.1094L93.5625 1.25H96.7344L96.2812 5.14062ZM101.422 24L95.2188 5.14062L94.7188 1.25H97.9219L106.422 24H101.422ZM101.141 15.5312V19.2031H89.125V15.5312H101.141ZM113.234 20.3906L117.766 1.25H120.297L120.875 4.4375L116.047 24H113.328L113.234 20.3906ZM110.906 1.25L114.656 20.3906L114.344 24H111.312L106.266 1.25H110.906ZM124.859 20.3125L128.562 1.25H133.203L128.172 24H125.141L124.859 20.3125ZM121.719 1.25L126.281 20.4688L126.156 24H123.438L118.578 4.42188L119.203 1.25H121.719Z" fill="#DBB014"/>
</svg>
