<svg width="50" height="32" viewBox="0 0 50 32" fill="none" xmlns="http://www.w3.org/2000/svg">
<path d="M28.375 19C26.5 19 24.9062 18.4167 23.5938 17.25C22.2812 16.0833 21.625 14.6667 21.625 13C21.625 11.3333 22.2812 9.91667 23.5938 8.75C24.9062 7.58333 26.5 7 28.375 7C30.25 7 31.8438 7.58333 33.1562 8.75C34.4688 9.91667 35.125 11.3333 35.125 13C35.125 14.6667 34.4688 16.0833 33.1562 17.25C31.8438 18.4167 30.25 19 28.375 19ZM10.375 26C9.4375 26 8.64062 25.7083 7.98438 25.125C7.32812 24.5417 7 23.8333 7 23V3C7 2.16667 7.32812 1.45833 7.98438 0.875C8.64062 0.291667 9.4375 0 10.375 0H46.375C47.3125 0 48.1094 0.291667 48.7656 0.875C49.4219 1.45833 49.75 2.16667 49.75 3V23C49.75 23.8333 49.4219 24.5417 48.7656 25.125C48.1094 25.7083 47.3125 26 46.375 26H10.375ZM16 23H40.75C40.75 21.6 41.2938 20.4167 42.3813 19.45C43.4688 18.4833 44.8 18 46.375 18V8C44.8 8 43.4688 7.51667 42.3813 6.55C41.2938 5.58333 40.75 4.4 40.75 3H16C16 4.4 15.4563 5.58333 14.3688 6.55C13.2812 7.51667 11.95 8 10.375 8V18C11.95 18 13.2812 18.4833 14.3688 19.45C15.4563 20.4167 16 21.6 16 23ZM3.625 32C2.6875 32 1.89062 31.7083 1.23438 31.125C0.578125 30.5417 0.25 29.8333 0.25 29V7.5C0.25 7.06667 0.409375 6.70833 0.728125 6.425C1.04687 6.14167 1.45 6 1.9375 6C2.425 6 2.82812 6.14167 3.14687 6.425C3.46562 6.70833 3.625 7.06667 3.625 7.5V29H41.3125C41.8 29 42.2031 29.1417 42.5219 29.425C42.8406 29.7083 43 30.0667 43 30.5C43 30.9333 42.8406 31.2917 42.5219 31.575C42.2031 31.8583 41.8 32 41.3125 32H3.625ZM10.375 23V3V23Z" fill="#DBB014"/>
</svg>
