<svg width="60" height="60" viewBox="0 0 60 60" fill="none" xmlns="http://www.w3.org/2000/svg">
<path d="M11.1874 46.4062C14.2499 44.2673 17.2881 42.6267 20.302 41.4843C23.3159 40.3419 26.5485 39.7708 29.9999 39.7708C33.4513 39.7708 36.6961 40.3419 39.7343 41.4843C42.7725 42.6267 45.8228 44.2673 48.8853 46.4062C51.0242 43.7812 52.5433 41.1319 53.4426 38.4582C54.3419 35.7846 54.7916 32.9652 54.7916 29.9999C54.7916 22.9513 52.4218 17.0572 47.6822 12.3176C42.9426 7.57804 37.0485 5.20825 29.9999 5.20825C22.9513 5.20825 17.0572 7.57804 12.3176 12.3176C7.57804 17.0572 5.20825 22.9513 5.20825 29.9999C5.20825 32.9652 5.67006 35.7846 6.59367 38.4582C7.51728 41.1319 9.04853 43.7812 11.1874 46.4062ZM29.9999 32.1874C27.1805 32.1874 24.8107 31.2273 22.8905 29.3072C20.9704 27.3871 20.0103 25.0173 20.0103 22.1978C20.0103 19.3784 20.9704 17.0086 22.8905 15.0885C24.8107 13.1683 27.1805 12.2083 29.9999 12.2083C32.8194 12.2083 35.1892 13.1683 37.1093 15.0885C39.0294 17.0086 39.9895 19.3784 39.9895 22.1978C39.9895 25.0173 39.0294 27.3871 37.1093 29.3072C35.1892 31.2273 32.8194 32.1874 29.9999 32.1874ZM29.9999 59.1666C26.0138 59.1666 22.2464 58.401 18.6978 56.8697C15.1492 55.3385 12.0503 53.2482 9.40096 50.5989C6.75165 47.9496 4.66138 44.8506 3.13013 41.302C1.59888 37.7534 0.833252 33.986 0.833252 29.9999C0.833252 25.9652 1.59888 22.1857 3.13013 18.6614C4.66138 15.1371 6.75165 12.0503 9.40096 9.40096C12.0503 6.75165 15.1492 4.66138 18.6978 3.13013C22.2464 1.59888 26.0138 0.833252 29.9999 0.833252C34.0346 0.833252 37.8142 1.59888 41.3385 3.13013C44.8628 4.66138 47.9496 6.75165 50.5989 9.40096C53.2482 12.0503 55.3385 15.1371 56.8697 18.6614C58.401 22.1857 59.1666 25.9652 59.1666 29.9999C59.1666 33.986 58.401 37.7534 56.8697 41.302C55.3385 44.8506 53.2482 47.9496 50.5989 50.5989C47.9496 53.2482 44.8628 55.3385 41.3385 56.8697C37.8142 58.401 34.0346 59.1666 29.9999 59.1666ZM29.9999 54.7916C32.6735 54.7916 35.2864 54.4027 37.8385 53.6249C40.3905 52.8471 42.9062 51.486 45.3853 49.5416C42.9062 47.7916 40.3784 46.4548 37.802 45.5312C35.2256 44.6076 32.6249 44.1458 29.9999 44.1458C27.3749 44.1458 24.7742 44.6076 22.1978 45.5312C19.6214 46.4548 17.0937 47.7916 14.6145 49.5416C17.0937 51.486 19.6093 52.8471 22.1614 53.6249C24.7135 54.4027 27.3263 54.7916 29.9999 54.7916ZM29.9999 27.8124C31.6527 27.8124 33.0017 27.2898 34.0468 26.2447C35.0919 25.1996 35.6145 23.8506 35.6145 22.1978C35.6145 20.5451 35.0919 19.1961 34.0468 18.151C33.0017 17.1058 31.6527 16.5833 29.9999 16.5833C28.3471 16.5833 26.9982 17.1058 25.953 18.151C24.9079 19.1961 24.3853 20.5451 24.3853 22.1978C24.3853 23.8506 24.9079 25.1996 25.953 26.2447C26.9982 27.2898 28.3471 27.8124 29.9999 27.8124Z" fill="#DBB014"/>
</svg>
