<svg width="50" height="40" viewBox="0 0 50 40" fill="none" xmlns="http://www.w3.org/2000/svg">
<path d="M24.7188 37C24.9062 37 25.1219 36.9583 25.3656 36.875C25.6094 36.7917 25.8062 36.6833 25.9563 36.55L44.9125 19.65C45.4 19.2167 45.7656 18.725 46.0094 18.175C46.2531 17.625 46.375 17.0667 46.375 16.5C46.375 15.9333 46.2531 15.3667 46.0094 14.8C45.7656 14.2333 45.4 13.7333 44.9125 13.3L34.7875 4.3C34.3 3.86667 33.7375 3.54167 33.1 3.325C32.4625 3.10834 31.825 3 31.1875 3C30.55 3 29.9219 3.10834 29.3031 3.325C28.6844 3.54167 28.1313 3.86667 27.6438 4.3L26.6313 5.2L31.1875 9.3C31.675 9.76667 32.1062 10.3083 32.4813 10.925C32.8563 11.5417 33.0438 12.2167 33.0438 12.95C33.0438 14.2167 32.4906 15.3333 31.3844 16.3C30.2781 17.2667 29.0125 17.75 27.5875 17.75C26.65 17.75 25.8719 17.625 25.2531 17.375C24.6344 17.125 24.0625 16.7667 23.5375 16.3L19.4312 12.65L9.25 21.7C9.0625 21.8667 8.93125 22.0417 8.85625 22.225C8.78125 22.4083 8.74375 22.6 8.74375 22.8C8.74375 23.2333 8.90313 23.5917 9.22188 23.875C9.54063 24.1583 9.94375 24.3 10.4313 24.3C10.6562 24.3 10.8719 24.25 11.0781 24.15C11.2844 24.05 11.4625 23.9333 11.6125 23.8L19.375 16.9L21.7375 19L14.0312 25.85C13.8438 26.0167 13.7125 26.2 13.6375 26.4C13.5625 26.6 13.525 26.8 13.525 27C13.525 27.4 13.6938 27.75 14.0312 28.05C14.3687 28.35 14.7625 28.5 15.2125 28.5C15.4375 28.5 15.6531 28.4583 15.8594 28.375C16.0656 28.2917 16.2438 28.1833 16.3938 28.05L24.1562 21.15L26.5188 23.25L18.8125 30.1C18.6625 30.2333 18.5406 30.4083 18.4469 30.625C18.3531 30.8417 18.3062 31.05 18.3062 31.25C18.3062 31.65 18.475 32 18.8125 32.3C19.15 32.6 19.5437 32.75 19.9937 32.75C20.2188 32.75 20.425 32.7167 20.6125 32.65C20.8 32.5833 20.9875 32.4667 21.175 32.3L28.9375 25.4L31.3 27.5L23.5375 34.4C23.35 34.5667 23.2188 34.75 23.1438 34.95C23.0688 35.15 23.0312 35.3333 23.0312 35.5C23.0312 35.9667 23.1812 36.3333 23.4812 36.6C23.7812 36.8667 24.1938 37 24.7188 37ZM24.7188 40C23.4813 40 22.375 39.5917 21.4 38.775C20.425 37.9583 19.8438 36.95 19.6562 35.75C18.3813 35.5833 17.3125 35.1167 16.45 34.35C15.5875 33.5833 15.0625 32.6333 14.875 31.5C13.6 31.3333 12.5406 30.8583 11.6969 30.075C10.8531 29.2917 10.3375 28.35 10.15 27.25C8.7625 27.0833 7.61875 26.5833 6.71875 25.75C5.81875 24.9167 5.36875 23.9167 5.36875 22.75C5.36875 22.1833 5.49062 21.6167 5.73438 21.05C5.97813 20.4833 6.34375 19.9833 6.83125 19.55L19.4312 8.35L25.6187 13.85C25.9187 14.1167 26.2469 14.325 26.6031 14.475C26.9594 14.625 27.3062 14.7 27.6438 14.7C28.1313 14.7 28.5906 14.5083 29.0219 14.125C29.4531 13.7417 29.6687 13.3333 29.6687 12.9C29.6687 12.7 29.6031 12.475 29.4719 12.225C29.3406 11.975 29.125 11.7167 28.825 11.45L20.7812 4.3C20.2938 3.86667 19.7313 3.54167 19.0938 3.325C18.4562 3.10834 17.8187 3 17.1812 3C16.5437 3 15.9156 3.10834 15.2969 3.325C14.6781 3.54167 14.125 3.86667 13.6375 4.3L5.0875 11.9C4.5625 12.3667 4.19687 12.8583 3.99062 13.375C3.78437 13.8917 3.6625 14.4667 3.625 15.1C3.5875 15.7667 3.72813 16.4083 4.04688 17.025C4.36562 17.6417 4.75 18.2 5.2 18.7L2.78125 20.85C2.03125 20.1167 1.42188 19.2333 0.953125 18.2C0.484375 17.1667 0.25 16.1167 0.25 15.05C0.25 14.05 0.465625 13.0917 0.896875 12.175C1.32812 11.2583 1.9375 10.45 2.725 9.75L11.2188 2.2C12.0437 1.46667 12.9812 0.925003 14.0312 0.575003C15.0813 0.225003 16.15 0.0500031 17.2375 0.0500031C18.325 0.0500031 19.3844 0.225003 20.4156 0.575003C21.4469 0.925003 22.375 1.46667 23.2 2.2L24.2125 3.1L25.225 2.2C26.05 1.46667 26.9875 0.925003 28.0375 0.575003C29.0875 0.225003 30.1562 0.0500031 31.2437 0.0500031C32.3312 0.0500031 33.3906 0.225003 34.4219 0.575003C35.4531 0.925003 36.3812 1.46667 37.2062 2.2L47.275 11.15C48.1 11.8833 48.7188 12.7167 49.1313 13.65C49.5438 14.5833 49.75 15.5333 49.75 16.5C49.75 17.4667 49.5438 18.4083 49.1313 19.325C48.7188 20.2417 48.1 21.0667 47.275 21.8L28.3188 38.65C27.8313 39.0833 27.2781 39.4167 26.6594 39.65C26.0406 39.8833 25.3937 40 24.7188 40Z" fill="#DBB014"/>
</svg>
