<svg width="26" height="26" viewBox="0 0 26 26" fill="none" xmlns="http://www.w3.org/2000/svg">
<path d="M11.1562 15.8438L8.09375 12.7812C7.90625 12.5938 7.67708 12.5 7.40625 12.5C7.13542 12.5 6.89583 12.6042 6.6875 12.8125C6.47917 13.0208 6.375 13.2604 6.375 13.5312C6.375 13.8021 6.47917 14.0312 6.6875 14.2188L10.5 18.0312C10.6875 18.2188 10.9062 18.3125 11.1562 18.3125C11.4062 18.3125 11.625 18.2188 11.8125 18.0312L19.3125 10.5312C19.5 10.3437 19.5885 10.1146 19.5781 9.84375C19.5677 9.57292 19.4688 9.34375 19.2812 9.15625C19.0938 8.94792 18.8594 8.84375 18.5781 8.84375C18.2969 8.84375 18.0521 8.94792 17.8438 9.15625L11.1562 15.8438ZM13 25.5C11.2292 25.5 9.58333 25.1823 8.0625 24.5469C6.54167 23.9115 5.21875 23.0312 4.09375 21.9062C2.96875 20.7812 2.08854 19.4583 1.45313 17.9375C0.817708 16.4167 0.5 14.7708 0.5 13C0.5 11.25 0.817708 9.61458 1.45313 8.09375C2.08854 6.57292 2.96875 5.25 4.09375 4.125C5.21875 3 6.54167 2.11458 8.0625 1.46875C9.58333 0.822917 11.2292 0.5 13 0.5C14.75 0.5 16.3854 0.822917 17.9062 1.46875C19.4271 2.11458 20.75 3 21.875 4.125C23 5.25 23.8854 6.57292 24.5312 8.09375C25.1771 9.61458 25.5 11.25 25.5 13C25.5 14.7708 25.1771 16.4167 24.5312 17.9375C23.8854 19.4583 23 20.7812 21.875 21.9062C20.75 23.0312 19.4271 23.9115 17.9062 24.5469C16.3854 25.1823 14.75 25.5 13 25.5ZM13 23.625C16.0208 23.625 18.5469 22.6094 20.5781 20.5781C22.6094 18.5469 23.625 16.0208 23.625 13C23.625 9.97917 22.6094 7.45312 20.5781 5.42188C18.5469 3.39062 16.0208 2.375 13 2.375C9.97917 2.375 7.45312 3.39062 5.42188 5.42188C3.39062 7.45312 2.375 9.97917 2.375 13C2.375 16.0208 3.39062 18.5469 5.42188 20.5781C7.45312 22.6094 9.97917 23.625 13 23.625Z" fill="black"/>
</svg>
